<?xml version="1.0" encoding="utf-8"?><svg xmlns="http://www.w3.org/2000/svg" xmlns:xlink="http://www.w3.org/1999/xlink"><symbol viewBox="0 0 10 6" id="arrow-down" xmlns="http://www.w3.org/2000/svg"><path fill-rule="evenodd" clip-rule="evenodd" d="M.436.405a.5.5 0 01.707 0L4.79 4.052 8.436.405a.5.5 0 01.707.707L4.79 5.466.436 1.112a.5.5 0 010-.707z"/></symbol><symbol viewBox="0 0 7 12" id="arrow-left" xmlns="http://www.w3.org/2000/svg"><path fill-rule="evenodd" clip-rule="evenodd" d="M6.854.737a.5.5 0 010 .707L2.207 6.09l4.647 4.647a.5.5 0 11-.708.707L.793 6.09 6.146.737a.5.5 0 01.708 0z"/></symbol><symbol viewBox="0 0 7 12" id="arrow-right" xmlns="http://www.w3.org/2000/svg"><path fill-rule="evenodd" clip-rule="evenodd" d="M.146 11.444a.5.5 0 010-.707L4.793 6.09.146 1.444A.5.5 0 01.854.737L6.207 6.09.854 11.444a.5.5 0 01-.708 0z"/></symbol><symbol viewBox="0 0 8 5" id="arrow-up" xmlns="http://www.w3.org/2000/svg"><path fill-rule="evenodd" clip-rule="evenodd" d="M7.466 4.771a.5.5 0 01-.707.006L4.055 2.121 1.35 4.777a.5.5 0 01-.7-.713L4.055.72l3.404 3.344a.5.5 0 01.007.707z"/></symbol><symbol viewBox="0 0 13 11" id="check" xmlns="http://www.w3.org/2000/svg"><path d="M0 4.907l.855-.8 4.19 2.272L12.267.142 13 .807l-7.64 9.335L0 4.907z"/></symbol><symbol viewBox="0 0 18 18" id="star" xmlns="http://www.w3.org/2000/svg"><path d="M8.077.72c.341-.821 1.505-.821 1.846 0l1.752 4.211a1 1 0 00.843.613l4.547.365c.887.07 1.246 1.177.57 1.756l-3.463 2.967a1 1 0 00-.322.992l1.058 4.437c.206.865-.735 1.549-1.494 1.085L9.52 14.768a1 1 0 00-1.042 0l-3.893 2.378c-.759.464-1.7-.22-1.494-1.085l1.059-4.437a1 1 0 00-.323-.992L.364 7.665C-.31 7.086.048 5.98.935 5.909l4.547-.365a1 1 0 00.843-.613L8.077.72z"/></symbol></svg>